<svg id="Layer_1" data-name="Layer 1" xmlns="http://www.w3.org/2000/svg" viewBox="0 0 286.31 37.64"><defs><style>.cls-1{fill:#e52421;}</style></defs><title>LOGO LUISA</title><path class="cls-1" d="M69.85,1965.79a10.24,10.24,0,0,0,.63-3.41c0-1.14.09-2.37.09-4v-7.83c0-3.86,0-7.82-.22-9.73a5.87,5.87,0,0,0-.87-3,2.29,2.29,0,0,0-1.73-.87,1.72,1.72,0,0,0-.45,0l-.18-.59c1.54-.55,4.95-1.46,6.95-2.23a18,18,0,0,1,5.15-1.87l.59.46a24.39,24.39,0,0,1,.22,3.73c0,2.59-.09,11.64-.09,20.69a37.21,37.21,0,0,0,.41,7.37,4.18,4.18,0,0,0,2.37,3.23l0,.5c-1.36,0-5.46-.13-7.78-.13-2.59,0-6.23.13-6.86.13l0-.5A3.87,3.87,0,0,0,69.85,1965.79Z" transform="translate(-67.12 -1931.38)"/><path class="cls-1" d="M86.13,1963.79a35.27,35.27,0,0,1-.27-5.64,19.91,19.91,0,0,0-.41-5.51,1.81,1.81,0,0,0-1.6-1.5,2.17,2.17,0,0,0-.54,0l-.14-.5c1.55-.55,3.69-1.5,5.41-2.32,3-1.59,4.92-2.59,6-2.59a.87.87,0,0,1,.45.22,10.9,10.9,0,0,1,.32,3.42c0,.81-.09,4.63-.09,7a25.12,25.12,0,0,0,.41,5.55,2.43,2.43,0,0,0,2.59,2.09,4.7,4.7,0,0,0,2.6-1v-4.42a26.6,26.6,0,0,0-.46-5.86c-.23-1-.86-1.69-1.68-1.69a1.7,1.7,0,0,0-.5,0l-.14-.5c1.32-.46,3.64-1.46,5.6-2.41s5-2.55,6.14-2.55c.27,0,.63.23.63.46,0,.59-.13,1.91-.18,3.32,0,1.68-.09,4.73-.09,7.73a17,17,0,0,0,.59,5.41c.32.82.91,1.41,1.55,1.41a2.51,2.51,0,0,0,.59,0l.09.5c-1.77.72-3.87,1.63-6.14,2.77a15.88,15.88,0,0,1-5.23,1.73.47.47,0,0,1-.46-.27,40,40,0,0,1-.31-4.6c-2.82,2.32-5.74,4.64-8.78,4.64C88.77,1968.79,86.76,1967,86.13,1963.79Z" transform="translate(-67.12 -1931.38)"/><path class="cls-1" d="M115.47,1965.79c.68-1.59.72-4.23.72-7,0-2.64-.13-5.6-.82-6.69a1.54,1.54,0,0,0-1.36-.86,2.17,2.17,0,0,0-.46,0l-.13-.5a59.48,59.48,0,0,0,6-2.68c2.23-1.23,4.46-2.27,5.32-2.27a.62.62,0,0,1,.59.45,31.57,31.57,0,0,1,.23,4.23c0,1.37,0,3.55,0,5.64V1959a26.71,26.71,0,0,0,.41,5.55,4.07,4.07,0,0,0,2.37,3.23l-.05.5c-1.36,0-5.46-.13-7.78-.13-2.59,0-6.23.13-6.86.13l-.05-.5A3.87,3.87,0,0,0,115.47,1965.79Z" transform="translate(-67.12 -1931.38)"/><path class="cls-1" d="M139.57,1967.75a2.64,2.64,0,0,0,1.59-2.28,2.11,2.11,0,0,0-.54-1.5,10.13,10.13,0,0,0-3.19-2.23,25.66,25.66,0,0,1-5.09-3.18,6.41,6.41,0,0,1-2.23-5.1,6.19,6.19,0,0,1,2.59-5.09c1.91-1.46,4.42-2,7.46-2a23.78,23.78,0,0,1,8,1.23c.23,1.36.28,4.91.41,7.1l-.54.09a24.73,24.73,0,0,0-8.69-7.46,2.78,2.78,0,0,0-1.23,2.45,2.88,2.88,0,0,0,1,2.23,18.07,18.07,0,0,0,4.05,2.41,14.87,14.87,0,0,1,4.59,3,5.93,5.93,0,0,1,1.41,4.18,6.2,6.2,0,0,1-2.41,5.14c-1.77,1.36-4.41,2.09-7.77,2.09a20.77,20.77,0,0,1-8.24-1.32c-.45-1.18-.68-5-.95-7.41l.54-.09A23.88,23.88,0,0,0,139.57,1967.75Z" transform="translate(-67.12 -1931.38)"/><path class="cls-1" d="M151.49,1963.38a3.17,3.17,0,0,1,.68-2.23c1.82-.86,6.14-1.5,12.42-3.23v-.64a17,17,0,0,0-.27-3.23c-.37-1.77-1.23-3.41-4-3.41a4.66,4.66,0,0,0-1.18.14c.18,1.18,1,2.82,1,4.59a2.88,2.88,0,0,1-.73,2.1,3.58,3.58,0,0,1-2.54.86c-2.37,0-4.19-1.27-4.19-3.09,0-1.64,1.14-2.78,5.1-4.92.82-.59,1.54-1.13,2.27-1.59a12.55,12.55,0,0,1,7.14-2.27c2.32,0,4.1.63,5.28,2.32a6.54,6.54,0,0,1,1,2.91,24.34,24.34,0,0,1,.13,3c0,1.59-.09,3.45-.09,4.77a6.29,6.29,0,0,0,.73,3.55,2.39,2.39,0,0,0,1.77,1,3.82,3.82,0,0,0,.68,0l.1.5a41.87,41.87,0,0,0-4.23,2.45,9.2,9.2,0,0,1-4.28,1.78c-1.46,0-3-1.6-3.55-3.73-1.86,2-4.14,3.77-7.32,3.77C153.72,1968.79,151.49,1966.56,151.49,1963.38Zm13.19.82a15.23,15.23,0,0,1-.14-2c0-.86.05-2.09.05-3.27l-.73.18c-1.86.45-3.09,1.09-3.09,2.68a2.46,2.46,0,0,0,2.55,2.78A2.9,2.9,0,0,0,164.68,1964.2Z" transform="translate(-67.12 -1931.38)"/><path class="cls-1" d="M126.64,1938.35a46.4,46.4,0,0,0-6.93,6.94,46.67,46.67,0,0,0-7-6.94,43.76,43.76,0,0,0,7-7A43.51,43.51,0,0,0,126.64,1938.35Z" transform="translate(-67.12 -1931.38)"/><path class="cls-1" d="M195,1966.25c.5-1.1.82-3,.82-6.74,0-4.14-.23-5.87-.5-6.77a1.87,1.87,0,0,0-1.73-1.55c-.19,0-.37,0-.46,0l-.09-.5c1.41-.59,3.91-1.63,5.41-2.36,2.1-1.14,5-2.59,5.92-2.59a.62.62,0,0,1,.59.36,24.61,24.61,0,0,1,.23,4.55v3.18a22.66,22.66,0,0,1,3.13-6,4,4,0,0,1,3.05-1.78c2.46,0,4.19,3,4.19,5.92a2.8,2.8,0,0,1-2.91,3c-1.78,0-4.55-1.18-6-1.18a1.15,1.15,0,0,0-.41,0,7.48,7.48,0,0,0-1,4.41v.73c0,2.59,0,4.68.72,6.27a4.26,4.26,0,0,0,3.51,2.51l0,.54c-2.32,0-6.55-.13-9-.13s-4.68.09-7.09.13l0-.5A3.23,3.23,0,0,0,195,1966.25Z" transform="translate(-67.12 -1931.38)"/><path class="cls-1" d="M218,1965.79c.68-1.59.72-4.23.72-7,0-2.64-.13-5.6-.81-6.69a1.57,1.57,0,0,0-1.37-.86,2.09,2.09,0,0,0-.45,0l-.14-.5a59.48,59.48,0,0,0,6.05-2.68c2.23-1.23,4.46-2.27,5.32-2.27a.62.62,0,0,1,.59.45,30,30,0,0,1,.23,4.23c0,1.37,0,3.55,0,5.64V1959a26.88,26.88,0,0,0,.4,5.55,4.07,4.07,0,0,0,2.37,3.23l0,.5c-1.36,0-5.45-.13-7.77-.13-2.6,0-6.24.13-6.87.13l0-.5A3.83,3.83,0,0,0,218,1965.79Z" transform="translate(-67.12 -1931.38)"/><path class="cls-1" d="M234.16,1958.65v-6.23c0-3.92,0-7.78-.09-9.6-.09-2.64-.36-3.91-.82-4.73a2.27,2.27,0,0,0-1.86-1.14c-.23,0-.41,0-.5,0l-.18-.59c2.14-.73,4.73-1.41,6.87-2.19,1.68-.82,4.18-1.91,5.36-1.91l.41.27a25.7,25.7,0,0,1,.28,4.46c0,2.32-.1,8-.1,13.47a21.22,21.22,0,0,1,3.28-2.6,8.91,8.91,0,0,1,4.59-1.45,7.66,7.66,0,0,1,6,2.77c1.69,1.91,2.5,4.41,2.5,7.78a10.89,10.89,0,0,1-5.27,9.78,16.26,16.26,0,0,1-8.28,2,10.52,10.52,0,0,1-6.51-2.45,45.42,45.42,0,0,0-5.77,2.22l-.59-.27A44.77,44.77,0,0,0,234.16,1958.65Zm9.42,1.55c.14,3.82.36,4.73.82,5.77a3,3,0,0,0,2,1.82,7.1,7.1,0,0,0,2.32-3,15.67,15.67,0,0,0,1-6c0-2.82-.59-5-1.68-6.46a4.07,4.07,0,0,0-2.41-1.5,4.48,4.48,0,0,0-2.1,1V1956C243.53,1957.33,243.53,1958.83,243.58,1960.2Z" transform="translate(-67.12 -1931.38)"/><path class="cls-1" d="M278.88,1964a8.61,8.61,0,0,0,6.46-3.14l.5.36c-2,3.87-5.78,7.51-11.38,7.51a12.62,12.62,0,0,1-8.09-2.46,10.76,10.76,0,0,1-3.82-8.73c0-6,4.86-11.15,12-11.15,6.78,0,10.1,4,11.19,8.1a5.51,5.51,0,0,1,.23,1.36.69.69,0,0,1-.23.55l-13,.27v.18C272.69,1961.56,275.19,1964,278.88,1964Zm-6.14-8.33c1.68,0,3.36-.13,4.41-.27-.23-3.82-1.09-7.1-2.41-8C273.51,1948.73,272.83,1951.51,272.74,1955.69Z" transform="translate(-67.12 -1931.38)"/><path class="cls-1" d="M289.43,1965.79c.68-1.59.73-4.23.73-7,0-2.64-.14-5.6-.82-6.69a1.57,1.57,0,0,0-1.37-.86,2.09,2.09,0,0,0-.45,0l-.14-.5a59.48,59.48,0,0,0,6.05-2.68c2.23-1.23,4.46-2.27,5.32-2.27a.62.62,0,0,1,.59.45,30,30,0,0,1,.23,4.23c0,1.37,0,3.55,0,5.64V1959a26.88,26.88,0,0,0,.4,5.55,4.07,4.07,0,0,0,2.37,3.23l-.05.5c-1.36,0-5.45-.13-7.77-.13-2.6,0-6.24.13-6.87.13l-.05-.5A3.83,3.83,0,0,0,289.43,1965.79Z" transform="translate(-67.12 -1931.38)"/><path class="cls-1" d="M304.76,1966.25c.5-1.1.81-3,.81-6.74,0-4.14-.22-5.87-.5-6.77a1.85,1.85,0,0,0-1.72-1.55c-.19,0-.37,0-.46,0l-.09-.5c1.41-.59,3.91-1.63,5.41-2.36,2.09-1.14,5-2.59,5.92-2.59a.62.62,0,0,1,.59.36,25.71,25.71,0,0,1,.22,4.55v3.18a23,23,0,0,1,3.14-6,4,4,0,0,1,3.05-1.78c2.46,0,4.19,3,4.19,5.92a2.81,2.81,0,0,1-2.92,3c-1.77,0-4.54-1.18-6-1.18a1.15,1.15,0,0,0-.41,0,7.47,7.47,0,0,0-1.05,4.41v.73c0,2.59.05,4.68.73,6.27a4.26,4.26,0,0,0,3.5,2.51l0,.54c-2.32,0-6.55-.13-9-.13s-4.68.09-7.09.13l0-.5A3.23,3.23,0,0,0,304.76,1966.25Z" transform="translate(-67.12 -1931.38)"/><path class="cls-1" d="M332.14,1948.19a18.55,18.55,0,0,1,8-1.78,15.85,15.85,0,0,1,9.15,2.78,9.89,9.89,0,0,1,4.14,8.32c0,4-2.46,7.6-6.69,9.64a16.47,16.47,0,0,1-6.82,1.6,17.15,17.15,0,0,1-9.69-2.73,9.64,9.64,0,0,1-4.32-8.19C325.91,1953.6,328.27,1950.19,332.14,1948.19Zm7.09-.78c-2,.91-3.09,4.69-3.09,9.1,0,5.82,1.64,10,4.09,11.19,1.82-.77,3-4.73,3-9.28C343.19,1952.55,341.51,1948,339.23,1947.41Z" transform="translate(-67.12 -1931.38)"/><path class="cls-1" d="M229.47,1938.52a46,46,0,0,0-6.94,6.94,46.2,46.2,0,0,0-7-6.94,43.35,43.35,0,0,0,7-7A43.16,43.16,0,0,0,229.47,1938.52Z" transform="translate(-67.12 -1931.38)"/><path class="cls-1" d="M300.53,1938.52a46.4,46.4,0,0,0-6.93,6.94,46.67,46.67,0,0,0-7-6.94,43.76,43.76,0,0,0,7-7A43.51,43.51,0,0,0,300.53,1938.52Z" transform="translate(-67.12 -1931.38)"/></svg>